<svg width="27" height="20" viewBox="0 0 27 20" fill="none" xmlns="http://www.w3.org/2000/svg">
<path fill-rule="evenodd" clip-rule="evenodd" d="M23.5003 16.5434C20.7387 18.5785 16.7357 19.6644 13.2893 19.6644C8.45688 19.6644 4.10644 17.8774 0.815168 14.9053C0.556584 14.6716 0.788275 14.3531 1.09858 14.5351C4.65051 16.6013 9.04232 17.8443 13.5789 17.8443C16.6385 17.8443 20.0043 17.2114 23.099 15.8981C23.5665 15.6995 23.9575 16.2042 23.5003 16.5434Z" fill="#FF9900"/>
<path fill-rule="evenodd" clip-rule="evenodd" d="M25.073 15.0035C24.7356 14.5799 22.8345 14.8033 21.9812 14.9024C21.7212 14.9335 21.6815 14.712 21.9157 14.5527C23.4298 13.5094 25.9144 13.8105 26.2041 14.1602C26.4939 14.5119 26.1287 16.9503 24.7058 18.1141C24.4876 18.2928 24.2792 18.1976 24.3764 17.9606C24.6959 17.1795 25.4123 15.429 25.073 15.0035Z" fill="#FF9900"/>
<path d="M12.1651 13.8335C14.3747 13.8335 15.6949 12.8724 16.3001 11.7753H16.4101V13.5699H19.6007V4.82647C19.6007 1.37333 16.5659 0.335693 13.8796 0.335693C10.9182 0.335693 8.64449 1.56045 7.91102 3.94192L11.0099 4.35017C11.34 3.45712 12.2752 2.69165 13.898 2.69165C15.4382 2.69165 16.2817 3.4231 16.2817 4.7074V4.75843C16.2817 5.64297 15.2824 5.6855 12.7978 5.93215C10.0656 6.20432 7.45261 6.96129 7.45261 9.90411C7.45261 12.4727 9.47881 13.8335 12.1651 13.8335ZM13.027 11.5711C11.6425 11.5711 10.6524 10.9843 10.6524 9.85308C10.6524 8.67085 11.7617 8.17754 13.247 7.98192C14.118 7.87135 15.86 7.66722 16.2909 7.34402V8.88348C16.2909 10.3379 15.0257 11.5711 13.027 11.5711Z" fill="#1D1F22"/>
</svg>
