<svg xmlns="http://www.w3.org/2000/svg" viewBox="0 0 20 20"><defs><style>.cls-1{fill:#dd3f3b;}.cls-2{fill:#fff;}.cls-3{fill:none;stroke:#dd3f3b;}</style></defs><g id="Слой_2" data-name="Слой 2"><g id="Слой_1-2" data-name="Слой 1"><path class="cls-1" d="M10,.5h0A9.5,9.5,0,0,1,19.5,10h0A9.5,9.5,0,0,1,10,19.5h0A9.5,9.5,0,0,1,.5,10h0A9.5,9.5,0,0,1,10,.5Z"/><path class="cls-2" d="M5.81,5.81a.61.61,0,0,1,.88,0L10,9.12l3.31-3.31a.62.62,0,0,1,.88.88L10.88,10l3.31,3.31a.62.62,0,0,1-.88.88L10,10.88,6.69,14.19a.62.62,0,0,1-.88-.88L9.12,10,5.81,6.69A.61.61,0,0,1,5.81,5.81Z"/><path class="cls-3" d="M10,.5h0A9.5,9.5,0,0,1,19.5,10h0A9.5,9.5,0,0,1,10,19.5h0A9.5,9.5,0,0,1,.5,10h0A9.5,9.5,0,0,1,10,.5Z"/></g></g></svg>