<svg width="153" height="153" viewBox="0 0 153 153" fill="none" xmlns="http://www.w3.org/2000/svg">
<path d="M114.75 38.25H102C102 24.1613 90.5888 12.75 76.5 12.75C62.4113 12.75 51 24.1613 51 38.25H38.25C31.2375 38.25 25.5 43.9875 25.5 51V127.5C25.5 134.512 31.2375 140.25 38.25 140.25H114.75C121.762 140.25 127.5 134.512 127.5 127.5V51C127.5 43.9875 121.762 38.25 114.75 38.25ZM63.75 63.75C63.75 67.2562 60.8812 70.125 57.375 70.125C53.8687 70.125 51 67.2562 51 63.75V51H63.75V63.75ZM76.5 25.5C83.5125 25.5 89.25 31.2375 89.25 38.25H63.75C63.75 31.2375 69.4875 25.5 76.5 25.5ZM102 63.75C102 67.2562 99.1312 70.125 95.625 70.125C92.1188 70.125 89.25 67.2562 89.25 63.75V51H102V63.75Z" fill="#D3D3D3"/>
</svg>
