<svg width="93" height="23" viewBox="0 0 93 23" fill="none" xmlns="http://www.w3.org/2000/svg">
<g clip-path="url(#clip0_1049_38012)">
<path fill-rule="evenodd" clip-rule="evenodd" d="M8.11502 5.41388H14.47C17.882 5.41388 19.1665 7.17718 18.968 9.76772C18.6399 14.0445 16.1071 16.4107 12.7475 16.4107H11.0514C10.5904 16.4107 10.2804 16.7221 10.1557 17.5661L9.43555 22.4726C9.38798 22.7907 9.22394 22.9749 8.97788 23H4.98511C4.60945 23 4.47658 22.707 4.575 22.0723L7.00938 6.34326C7.10452 5.71363 7.44245 5.41388 8.11502 5.41388Z" fill="#009EE3"/>
<path fill-rule="evenodd" clip-rule="evenodd" d="M35.7052 5.1225C37.8492 5.1225 39.8275 6.30976 39.5568 9.26869C39.2288 12.7853 37.3833 14.7311 34.4716 14.7395H31.9273C31.5615 14.7395 31.3843 15.0442 31.2892 15.6688L30.797 18.8622C30.7232 19.3445 30.4804 19.5823 30.1228 19.5823H27.7557C27.3784 19.5823 27.2472 19.3361 27.3308 18.7852L29.2846 5.98657C29.3814 5.35694 29.6127 5.1225 30.0342 5.1225H35.7002H35.7052ZM31.8502 11.9748H33.7777C34.9834 11.9279 35.7839 11.0755 35.8643 9.5383C35.9135 8.58882 35.2852 7.90895 34.2862 7.91398L32.4719 7.92235L31.8502 11.9748ZM45.9922 18.6027C46.2087 18.4017 46.4285 18.2979 46.3974 18.5457L46.3203 19.1385C46.2809 19.4483 46.4007 19.6124 46.6828 19.6124H48.7858C49.1402 19.6124 49.3124 19.4667 49.3993 18.9074L50.6953 10.605C50.7609 10.188 50.6608 9.98373 50.3508 9.98373H48.0378C47.8295 9.98373 47.7278 10.1026 47.6736 10.4275L47.5883 10.9382C47.544 11.2045 47.4243 11.2514 47.3127 10.9834C46.9207 10.0356 45.92 9.6103 44.524 9.64379C41.2809 9.71245 39.0943 12.226 38.8597 15.4478C38.6792 17.9395 40.4279 19.8971 42.7343 19.8971C44.4076 19.8971 45.1556 19.3947 45.9988 18.6077L45.9922 18.6027ZM44.2304 17.325C42.8344 17.325 41.8616 16.188 42.0634 14.7947C42.2652 13.4015 43.5709 12.2645 44.9669 12.2645C46.3629 12.2645 47.3357 13.4015 47.1339 14.7947C46.9322 16.188 45.628 17.325 44.2304 17.325ZM54.8111 9.95693H52.6785C52.2389 9.95693 52.0601 10.2918 52.1995 10.7038L54.8471 18.6177L52.2504 22.3838C52.0322 22.6986 52.2012 22.985 52.5079 22.985H54.9046C55.0442 23.0014 55.1856 22.9766 55.3118 22.9134C55.4381 22.8501 55.5438 22.7512 55.6165 22.6283L63.7595 10.7055C64.0105 10.3387 63.8924 9.95359 63.4807 9.95359H61.212C60.8232 9.95359 60.6673 10.111 60.4442 10.4409L57.0486 15.4645L55.5312 10.4292C55.4426 10.1244 55.2212 9.95693 54.8127 9.95693H54.8111Z" fill="#113984"/>
<path fill-rule="evenodd" clip-rule="evenodd" d="M72.2306 5.12249C74.3746 5.12249 76.353 6.30975 76.0823 9.26869C75.7542 12.7853 73.9088 14.7311 70.997 14.7395H68.4544C68.0886 14.7395 67.9114 15.0442 67.8163 15.6688L67.3241 18.8622C67.2503 19.3445 67.0075 19.5823 66.6499 19.5823H64.2828C63.9055 19.5823 63.7743 19.3361 63.8579 18.7852L65.815 5.98321C65.9117 5.35358 66.143 5.11914 66.5646 5.11914H72.2306V5.12249ZM68.3756 11.9748H70.3031C71.5088 11.9279 72.3094 11.0755 72.3897 9.53829C72.439 8.58882 71.8107 7.90895 70.8117 7.91397L68.9974 7.92235L68.3756 11.9748ZM82.5177 18.6027C82.7342 18.4017 82.954 18.2979 82.9228 18.5457L82.8457 19.1385C82.8064 19.4483 82.9261 19.6124 83.2083 19.6124H85.3113C85.6656 19.6124 85.8379 19.4667 85.9248 18.9074L87.2207 10.605C87.2864 10.188 87.1863 9.98372 86.8762 9.98372H84.5665C84.3582 9.98372 84.2565 10.1026 84.2024 10.4275L84.1171 10.9382C84.0728 11.2045 83.953 11.2514 83.8415 10.9834C83.4494 10.0356 82.4488 9.6103 81.0528 9.64379C77.8097 9.71245 75.623 12.226 75.3884 15.4478C75.208 17.9395 76.9567 19.8971 79.2631 19.8971C80.9363 19.8971 81.6843 19.3947 82.5275 18.6077L82.5177 18.6027ZM80.7575 17.325C79.3615 17.325 78.3887 16.1879 78.5905 14.7947C78.7923 13.4015 80.0981 12.2645 81.494 12.2645C82.89 12.2645 83.8628 13.4015 83.661 14.7947C83.4593 16.1879 82.1535 17.325 80.7575 17.325ZM90.4573 19.6258H88.0295C87.9872 19.6277 87.9451 19.6201 87.9061 19.6035C87.8671 19.5869 87.8321 19.5617 87.8038 19.5297C87.7754 19.4977 87.7543 19.4597 87.742 19.4184C87.7297 19.3771 87.7265 19.3336 87.7325 19.2909L89.8651 5.49927C89.8854 5.40514 89.9364 5.32082 90.0097 5.26001C90.0829 5.1992 90.1742 5.16549 90.2686 5.16436H92.6964C92.7387 5.16243 92.7808 5.17004 92.8198 5.18666C92.8588 5.20327 92.8938 5.22848 92.9221 5.26047C92.9505 5.29247 92.9716 5.33046 92.9839 5.37174C92.9962 5.41302 92.9994 5.45657 92.9934 5.49927L90.8608 19.2909C90.8411 19.3856 90.7904 19.4707 90.7171 19.5322C90.6438 19.5937 90.5521 19.6279 90.4573 19.6292V19.6258Z" fill="#009EE3"/>
<path fill-rule="evenodd" clip-rule="evenodd" d="M4.14086 0H10.5024C12.2937 0 14.4197 0.0586094 15.8403 1.33964C16.7901 2.19534 17.2888 3.55675 17.174 5.02366C16.7835 9.98202 13.8784 12.7601 9.98074 12.7601H6.84426C6.30949 12.7601 5.9568 13.1218 5.80588 14.0997L4.9299 19.7932C4.87249 20.1616 4.71665 20.3793 4.43778 20.4061H0.512266C0.0775562 20.4061 -0.0766442 20.0712 0.0365444 19.3311L2.85806 1.08176C2.97125 0.348306 3.36659 0 4.14086 0Z" fill="#113984"/>
<path fill-rule="evenodd" clip-rule="evenodd" d="M5.89722 13.522L7.00778 6.34323C7.10456 5.7136 7.44249 5.41217 8.11506 5.41217H14.47C15.5215 5.41217 16.3729 5.57963 17.0389 5.88942C16.4008 10.3035 13.6039 12.7551 9.94248 12.7551H6.81093C6.39098 12.7568 6.08258 12.9711 5.89722 13.522Z" fill="#172C70"/>
</g>
<defs>
<clipPath id="clip0_1049_38012">
<rect width="93" height="23" fill="white"/>
</clipPath>
</defs>
</svg>
