<svg xmlns="http://www.w3.org/2000/svg" viewBox="0 0 22 22"><defs><style>.cls-1{fill:#01b599;}.cls-2{fill:none;stroke:#fff;stroke-linecap:round;stroke-linejoin:round;stroke-width:1.67px;}</style></defs><g id="Слой_2" data-name="Слой 2"><g id="Слой_1-2" data-name="Слой 1"><path class="cls-1" d="M1,11A10,10,0,0,1,11,1h0A10,10,0,0,1,21,11h0A10,10,0,0,1,11,21h0A10,10,0,0,1,1,11Z"/><path class="cls-2" d="M15.17,7.88,9.44,13.6,6.83,11"/><path class="cls-1" d="M11,20a9,9,0,0,1-9-9H0A11,11,0,0,0,11,22Zm9-9a9,9,0,0,1-9,9v2A11,11,0,0,0,22,11ZM11,2a9,9,0,0,1,9,9h2A11,11,0,0,0,11,0Zm0-2A11,11,0,0,0,0,11H2a9,9,0,0,1,9-9Z"/></g></g></svg>