<svg width="20" height="20" viewBox="0 0 20 20" fill="none" xmlns="http://www.w3.org/2000/svg">
<path d="M9.99984 3.33335C6.31794 3.33335 3.33317 6.31812 3.33317 10C3.33317 13.6819 6.31794 16.6667 9.99984 16.6667C13.6817 16.6667 16.6665 13.6819 16.6665 10C16.6665 6.31812 13.6817 3.33335 9.99984 3.33335ZM1.6665 10C1.6665 5.39765 5.39746 1.66669 9.99984 1.66669C14.6022 1.66669 18.3332 5.39765 18.3332 10C18.3332 14.6024 14.6022 18.3334 9.99984 18.3334C5.39746 18.3334 1.6665 14.6024 1.6665 10Z" fill="#8E8F90"/>
<path d="M9.99984 11.6667C9.5396 11.6667 9.1665 11.2936 9.1665 10.8334V10C9.1665 9.53978 9.5396 9.16669 9.99984 9.16669C10.4601 9.16669 10.8332 9.53978 10.8332 10V10.8334C10.8332 11.2936 10.4601 11.6667 9.99984 11.6667Z" fill="#8E8F90"/>
<path d="M8.74984 13.75C8.74984 13.0597 9.30948 12.5 9.99984 12.5C10.6902 12.5 11.2498 13.0597 11.2498 13.75C11.2498 14.4404 10.6902 15 9.99984 15C9.30948 15 8.74984 14.4404 8.74984 13.75Z" fill="#8E8F90"/>
<path d="M10.3248 6.5095C9.52726 6.47152 8.8585 6.91702 8.7385 7.63702C8.66284 8.091 8.23348 8.39768 7.7795 8.32202C7.32553 8.24636 7.01885 7.817 7.09451 7.36302C7.39118 5.58303 9.01408 4.77853 10.4041 4.84472C11.1161 4.87862 11.8478 5.13418 12.4112 5.66067C12.9887 6.20025 13.3332 6.97316 13.3332 7.91669C13.3332 8.99278 12.9098 9.79078 12.1808 10.2767C11.5115 10.7229 10.6911 10.8334 9.99984 10.8334C9.5396 10.8334 9.1665 10.4603 9.1665 10C9.1665 9.53978 9.5396 9.16669 9.99984 9.16669C10.5586 9.16669 10.9881 9.06879 11.2563 8.88998C11.4649 8.75093 11.6665 8.50727 11.6665 7.91669C11.6665 7.40188 11.4902 7.08105 11.2733 6.87843C11.0425 6.66274 10.7065 6.52767 10.3248 6.5095Z" fill="#8E8F90"/>
</svg>
