<svg width="21" height="20" viewBox="0 0 21 20" fill="none" xmlns="http://www.w3.org/2000/svg">
<path d="M1.83337 2.08337H2.98762C3.46601 2.08337 3.7052 2.08337 3.89966 2.17011C4.07108 2.24658 4.21752 2.36975 4.32223 2.52554C4.44101 2.70226 4.48199 2.93791 4.56396 3.40923L4.84062 5.00004M4.84062 5.00004L5.49177 8.74414C5.67095 9.77442 5.76054 10.2896 6.02587 10.6607C6.25949 10.9874 6.5861 11.2362 6.96315 11.3748C7.39137 11.5321 7.91181 11.4817 8.95268 11.381L16.5117 10.6495C17.0727 10.5952 17.3532 10.568 17.5841 10.4863C18.2172 10.2622 18.6955 9.73532 18.8576 9.08363C18.9167 8.84589 18.9167 8.56408 18.9167 8.00046V8.00046C18.9167 7.4016 18.9167 7.10217 18.8521 6.85423C18.6748 6.17358 18.153 5.63609 17.4779 5.43873C17.232 5.36684 16.9327 5.35798 16.3341 5.34026L4.84062 5.00004Z" stroke="#8E8F90" stroke-width="1.8" stroke-linecap="round" stroke-linejoin="round"/>
<ellipse cx="8.08329" cy="15.8333" rx="1.66667" ry="1.66667" stroke="#8E8F90" stroke-width="1.8"/>
<circle cx="16" cy="15.8333" r="1.66667" stroke="#8E8F90" stroke-width="1.8"/>
</svg>
