<svg width="20" height="20" viewBox="0 0 20 20" xmlns="http://www.w3.org/2000/svg">
<path d="M10.0003 3.33341C6.31843 3.33341 3.33366 6.31818 3.33366 10.0001C3.33366 13.682 6.31843 16.6667 10.0003 16.6667C13.6822 16.6667 16.667 13.682 16.667 10.0001C16.667 6.31818 13.6822 3.33341 10.0003 3.33341ZM1.66699 10.0001C1.66699 5.39771 5.39795 1.66675 10.0003 1.66675C14.6027 1.66675 18.3337 5.39771 18.3337 10.0001C18.3337 14.6025 14.6027 18.3334 10.0003 18.3334C5.39795 18.3334 1.66699 14.6025 1.66699 10.0001Z"/>
<path d="M10.0003 8.33342C10.4606 8.33342 10.8337 8.70651 10.8337 9.16675V14.1667C10.8337 14.627 10.4606 15.0001 10.0003 15.0001C9.54009 15.0001 9.16699 14.627 9.16699 14.1667V9.16675C9.16699 8.70651 9.54009 8.33342 10.0003 8.33342Z"/>
<path d="M11.2503 6.25008C11.2503 6.94044 10.6907 7.50008 10.0003 7.50008C9.30997 7.50008 8.75033 6.94044 8.75033 6.25008C8.75033 5.55973 9.30997 5.00008 10.0003 5.00008C10.6907 5.00008 11.2503 5.55973 11.2503 6.25008Z"/>
</svg>
