<svg width="25" height="24" viewBox="0 0 25 24" fill="none" xmlns="http://www.w3.org/2000/svg">
<rect x="0.5" width="24" height="24" rx="12" fill="#ECECEC"/>
<path fill-rule="evenodd" clip-rule="evenodd" d="M19.8891 17.0078C17.8431 18.5155 14.8775 19.32 12.3242 19.32C8.74402 19.32 5.52096 17.9961 3.08258 15.7942C2.89101 15.621 3.06266 15.3851 3.29255 15.5199C5.92403 17.0507 9.17775 17.9716 12.5387 17.9716C14.8055 17.9716 17.299 17.5027 19.5918 16.5297C19.9381 16.3826 20.2278 16.7565 19.8891 17.0078Z" fill="#FF9900"/>
<path fill-rule="evenodd" clip-rule="evenodd" d="M21.0543 15.8668C20.8043 15.553 19.3959 15.7185 18.7637 15.7919C18.5711 15.815 18.5417 15.6509 18.7152 15.5328C19.8369 14.7599 21.6776 14.983 21.8923 15.2421C22.107 15.5026 21.8364 17.3091 20.7823 18.1713C20.6206 18.3037 20.4662 18.2332 20.5382 18.0576C20.7749 17.4789 21.3057 16.182 21.0543 15.8668Z" fill="#FF9900"/>
<path d="M11.4913 15C13.1283 15 14.1064 14.288 14.5547 13.4751H14.6362V14.8047H17V8.32703C17 5.76874 14.7517 5 12.7615 5C10.5675 5 8.88302 5.90737 8.33962 7.67171L10.6355 7.97416C10.88 7.31254 11.5728 6.74543 12.7751 6.74543C13.9162 6.74543 14.5411 7.28733 14.5411 8.23882V8.27662C14.5411 8.93195 13.8008 8.96345 11.96 9.14619C9.93585 9.34783 8 9.90863 8 12.0888C8 13.9918 9.50113 15 11.4913 15ZM12.1298 13.3239C11.1042 13.3239 10.3706 12.8891 10.3706 12.051C10.3706 11.1752 11.1925 10.8097 12.2928 10.6648C12.9381 10.5829 14.2287 10.4316 14.5479 10.1922V11.3327C14.5479 12.4102 13.6106 13.3239 12.1298 13.3239Z" fill="black"/>
</svg>
