<svg width="24" height="26" viewBox="0 0 24 26" fill="none" xmlns="http://www.w3.org/2000/svg">
<path d="M1 2.16669H2.86555C3.34662 2.16669 3.58715 2.16669 3.78231 2.25416C3.95434 2.33127 4.10107 2.45544 4.20557 2.61234C4.32413 2.79033 4.36392 3.02755 4.44351 3.50199L4.87275 6.06083M4.87275 6.06083L5.87039 12.0081C6.04491 13.0485 6.13216 13.5686 6.39807 13.943C6.63217 14.2726 6.96067 14.5235 7.34024 14.6627C7.77139 14.8207 8.29618 14.7681 9.34576 14.6628L20.1195 13.5818C21.1371 13.4797 21.646 13.4287 22.0304 13.1976C22.369 12.994 22.6397 12.6948 22.8084 12.3376C23 11.932 23 11.4206 23 10.3978V9.72044C23 8.63099 23 8.08627 22.7903 7.66516C22.6058 7.29459 22.3108 6.99042 21.946 6.7946C21.5316 6.57207 20.9871 6.55536 19.8982 6.52194L4.87275 6.06083Z" stroke="#414248" stroke-width="1.8" stroke-linecap="round" stroke-linejoin="round"/>
<ellipse cx="9.04966" cy="20.5248" rx="2.14634" ry="2.22522" stroke="#414248" stroke-width="1.8"/>
<ellipse cx="19.243" cy="20.5248" rx="2.14634" ry="2.22522" stroke="#414248" stroke-width="1.8"/>
</svg>
