<svg width="24" height="22" viewBox="0 0 24 22" fill="none" xmlns="http://www.w3.org/2000/svg">
<path d="M1 2.29163H2.67502C3.14661 2.29163 3.38241 2.29163 3.57507 2.37651C3.74494 2.45135 3.89062 2.57199 3.99581 2.72493C4.11512 2.89839 4.15907 3.13006 4.24697 3.59339L4.6087 5.49996M4.6087 5.49996L5.45984 9.98622C5.65066 10.992 5.74607 11.4949 6.01015 11.8578C6.24275 12.1775 6.56487 12.421 6.93582 12.5577C7.35698 12.7129 7.86683 12.6677 8.88652 12.5772L18.8449 11.6938C19.6262 11.6245 20.0168 11.5899 20.3276 11.4486C20.8235 11.2232 21.206 10.8052 21.3868 10.2913C21.5 9.96925 21.5 9.57709 21.5 8.79278V8.79278C21.5 7.96356 21.5 7.54895 21.3773 7.21497C21.1814 6.68185 20.7681 6.25716 20.2405 6.04688C19.9099 5.91515 19.4955 5.9039 18.6666 5.88141L4.6087 5.49996Z" stroke="white" stroke-width="1.8" stroke-linecap="round" stroke-linejoin="round"/>
<ellipse cx="8.5" cy="17.4167" rx="2" ry="1.83333" stroke="white" stroke-width="1.8"/>
<ellipse cx="18" cy="17.4167" rx="2" ry="1.83333" stroke="white" stroke-width="1.8"/>
</svg>
