<svg width="18" height="18" viewBox="0 0 18 18" fill="none" xmlns="http://www.w3.org/2000/svg">
<path d="M0 4C0 1.79086 1.79086 0 4 0H14C16.2091 0 18 1.79086 18 4V14C18 16.2091 16.2091 18 14 18H4C1.79086 18 0 16.2091 0 14V4Z" fill="#81324A"/>
<path d="M13.5 5.625L7.3125 11.8125L4.5 9" stroke="white" stroke-width="1.6666" stroke-linecap="round" stroke-linejoin="round"/>
<path d="M4 1H14V-1H4V1ZM17 4V14H19V4H17ZM14 17H4V19H14V17ZM1 14V4H-1V14H1ZM4 17C2.34315 17 1 15.6569 1 14H-1C-1 16.7614 1.23858 19 4 19V17ZM17 14C17 15.6569 15.6569 17 14 17V19C16.7614 19 19 16.7614 19 14H17ZM14 1C15.6569 1 17 2.34315 17 4H19C19 1.23858 16.7614 -1 14 -1V1ZM4 -1C1.23858 -1 -1 1.23858 -1 4H1C1 2.34315 2.34315 1 4 1V-1Z" fill="#81324A"/>
</svg>
