<svg width="20" height="20" viewBox="0 0 20 20" fill="none" xmlns="http://www.w3.org/2000/svg">
<path d="M4.16699 12.4993H3.33366C2.89163 12.4993 2.46771 12.3238 2.15515 12.0112C1.84259 11.6986 1.66699 11.2747 1.66699 10.8327V3.33268C1.66699 2.89065 1.84259 2.46673 2.15515 2.15417C2.46771 1.84161 2.89163 1.66602 3.33366 1.66602H10.8337C11.2757 1.66602 11.6996 1.84161 12.0122 2.15417C12.3247 2.46673 12.5003 2.89065 12.5003 3.33268V4.16602M9.16699 7.49935H16.667C17.5875 7.49935 18.3337 8.24554 18.3337 9.16602V16.666C18.3337 17.5865 17.5875 18.3327 16.667 18.3327H9.16699C8.24652 18.3327 7.50033 17.5865 7.50033 16.666V9.16602C7.50033 8.24554 8.24652 7.49935 9.16699 7.49935Z" stroke="currentColor" stroke-width="2" stroke-linecap="round" stroke-linejoin="round"/>
</svg>
