<svg width="20" height="20" viewBox="0 0 20 20" fill="none" xmlns="http://www.w3.org/2000/svg">
<path d="M9.99984 1.66669C6.77484 1.66669 4.1665 4.27502 4.1665 7.50002C4.1665 10.975 7.84984 15.7667 9.3665 17.5917C9.69984 17.9917 10.3082 17.9917 10.6415 17.5917C12.1498 15.7667 15.8332 10.975 15.8332 7.50002C15.8332 4.27502 13.2248 1.66669 9.99984 1.66669ZM9.99984 9.58335C8.84984 9.58335 7.9165 8.65002 7.9165 7.50002C7.9165 6.35002 8.84984 5.41669 9.99984 5.41669C11.1498 5.41669 12.0832 6.35002 12.0832 7.50002C12.0832 8.65002 11.1498 9.58335 9.99984 9.58335Z" fill="#8E8F90"/>
</svg>
