<svg width="21" height="20" viewBox="0 0 21 20" fill="none" xmlns="http://www.w3.org/2000/svg">
<path d="M10.5 3.33335C8.65905 3.33335 7.16667 4.82574 7.16667 6.66669C7.16667 8.50764 8.65905 10 10.5 10C12.3409 10 13.8333 8.50764 13.8333 6.66669C13.8333 4.82574 12.3409 3.33335 10.5 3.33335ZM5.5 6.66669C5.5 3.90526 7.73858 1.66669 10.5 1.66669C13.2614 1.66669 15.5 3.90526 15.5 6.66669C15.5 9.42811 13.2614 11.6667 10.5 11.6667C7.73858 11.6667 5.5 9.42811 5.5 6.66669ZM7.16667 15C5.78595 15 4.66667 16.1193 4.66667 17.5C4.66667 17.9603 4.29357 18.3334 3.83333 18.3334C3.3731 18.3334 3 17.9603 3 17.5C3 15.1988 4.86548 13.3334 7.16667 13.3334H13.8333C16.1345 13.3334 18 15.1988 18 17.5C18 17.9603 17.6269 18.3334 17.1667 18.3334C16.7064 18.3334 16.3333 17.9603 16.3333 17.5C16.3333 16.1193 15.214 15 13.8333 15H7.16667Z" fill="currentColor"/>
</svg>
