<svg width="16" height="16" viewBox="0 0 16 16" fill="none" xmlns="http://www.w3.org/2000/svg">
<mask id="mask0" style="mask-type:alpha" maskUnits="userSpaceOnUse" x="1" y="1" width="14" height="14">
<path fill-rule="evenodd" clip-rule="evenodd" d="M7.99992 1.3335C4.31992 1.3335 1.33325 4.32016 1.33325 8.00016C1.33325 11.6802 4.31992 14.6668 7.99992 14.6668C11.6799 14.6668 14.6666 11.6802 14.6666 8.00016C14.6666 4.32016 11.6799 1.3335 7.99992 1.3335ZM7.99992 8.66683C7.63325 8.66683 7.33325 8.36683 7.33325 8.00016V5.3335C7.33325 4.96683 7.63325 4.66683 7.99992 4.66683C8.36659 4.66683 8.66659 4.96683 8.66659 5.3335V8.00016C8.66659 8.36683 8.36659 8.66683 7.99992 8.66683ZM7.33325 10.0002V11.3335H8.66659V10.0002H7.33325Z" fill="black"/>
</mask>
<g mask="url(#mask0)">
<rect width="16" height="16" fill="#DD3F3B"/>
</g>
</svg>
