<svg width="19" height="20" viewBox="0 0 19 20" fill="none" xmlns="http://www.w3.org/2000/svg">
<path d="M7.12502 4.45833C6.68779 4.45833 6.33335 4.81277 6.33335 5.25C6.33335 5.68723 6.68779 6.04167 7.12502 6.04167C7.56225 6.04167 7.91669 5.68723 7.91669 5.25C7.91669 4.81277 7.56225 4.45833 7.12502 4.45833ZM4.88516 4.45833C5.2112 3.53589 6.09093 2.875 7.12502 2.875C8.15911 2.875 9.03884 3.53589 9.36488 4.45833H15.0417C15.4789 4.45833 15.8334 4.81277 15.8334 5.25C15.8334 5.68723 15.4789 6.04167 15.0417 6.04167H9.36488C9.03884 6.96411 8.15911 7.625 7.12502 7.625C6.09093 7.625 5.2112 6.96411 4.88516 6.04167H3.95835C3.52113 6.04167 3.16669 5.68723 3.16669 5.25C3.16669 4.81277 3.52113 4.45833 3.95835 4.45833H4.88516ZM11.875 9.20833C11.4378 9.20833 11.0834 9.56277 11.0834 10C11.0834 10.4372 11.4378 10.7917 11.875 10.7917C12.3122 10.7917 12.6667 10.4372 12.6667 10C12.6667 9.56277 12.3122 9.20833 11.875 9.20833ZM9.63516 9.20833C9.9612 8.28589 10.8409 7.625 11.875 7.625C12.9091 7.625 13.7888 8.28589 14.1149 9.20833H15.0417C15.4789 9.20833 15.8334 9.56277 15.8334 10C15.8334 10.4372 15.4789 10.7917 15.0417 10.7917H14.1149C13.7888 11.7141 12.9091 12.375 11.875 12.375C10.8409 12.375 9.9612 11.7141 9.63516 10.7917H3.95835C3.52113 10.7917 3.16669 10.4372 3.16669 10C3.16669 9.56277 3.52113 9.20833 3.95835 9.20833H9.63516ZM7.12502 13.9583C6.68779 13.9583 6.33335 14.3128 6.33335 14.75C6.33335 15.1872 6.68779 15.5417 7.12502 15.5417C7.56225 15.5417 7.91669 15.1872 7.91669 14.75C7.91669 14.3128 7.56225 13.9583 7.12502 13.9583ZM4.88516 13.9583C5.2112 13.0359 6.09093 12.375 7.12502 12.375C8.15911 12.375 9.03884 13.0359 9.36488 13.9583H15.0417C15.4789 13.9583 15.8334 14.3128 15.8334 14.75C15.8334 15.1872 15.4789 15.5417 15.0417 15.5417H9.36488C9.03884 16.4641 8.15911 17.125 7.12502 17.125C6.09093 17.125 5.2112 16.4641 4.88516 15.5417H3.95835C3.52113 15.5417 3.16669 15.1872 3.16669 14.75C3.16669 14.3128 3.52113 13.9583 3.95835 13.9583H4.88516Z" fill="white"/>
</svg>
