<svg width="22" height="22" viewBox="0 0 22 22" fill="none" xmlns="http://www.w3.org/2000/svg">
<path d="M2.50657 6C2.75977 6 3.01298 5.89061 3.01298 5.67168V3.90699H3.99358C4.20785 3.90699 4.29872 3.68805 4.29872 3.50338C4.29872 3.2846 4.18845 3.0861 3.99358 3.0861H3.01298V1.93028H4.69487C4.88959 1.93028 5 1.71134 5 1.4583C5 1.23937 4.90913 1 4.69487 1H2.44151C2.22083 1 2 1.10939 2 1.32832V5.67168C2 5.89061 2.25321 6 2.50657 6Z" fill="#66686F"/>
<path d="M7.61545 5.95931C7.92309 5.95931 8.23091 5.85081 8.23091 5.63366V3.99869H8.75155L9.83236 5.80327C9.91919 5.94575 10.0691 6 10.2268 6C10.5898 6 11 5.71519 11 5.45049C11 5.41651 10.9922 5.36911 10.9605 5.32843L9.99805 3.82908C10.5502 3.64591 10.9527 3.2116 10.9527 2.4518C10.9527 1.34592 10.0927 1 9.01187 1H7.3787C7.14992 1 7 1.14919 7 1.31879V5.63366C7 5.85081 7.30782 5.95931 7.61545 5.95931ZM8.23091 1.92271H9.01187C9.45366 1.92271 9.72196 2.07876 9.72196 2.55359C9.72196 3.02859 9.45366 3.18464 9.01187 3.18464H8.23091V1.92271Z" fill="#66686F"/>
<path d="M12.4332 6H14.7006C14.9107 6 15 5.76063 15 5.5417C15 5.28866 14.8917 5.06972 14.7006 5.06972H12.9937V3.90699H13.9491C14.1592 3.90699 14.2484 3.68805 14.2484 3.50338C14.2484 3.2846 14.1401 3.0861 13.9491 3.0861H12.9937V1.93028H14.7006C14.8917 1.93028 15 1.71134 15 1.4583C15 1.23937 14.9107 1 14.7006 1H12.4332C12.2166 1 12 1.10939 12 1.32832V5.67168C12 5.89061 12.2166 6 12.4332 6Z" fill="#66686F"/>
<path d="M16.4331 6H18.7007C18.9109 6 19 5.76063 19 5.5417C19 5.28866 18.8917 5.06972 18.7007 5.06972H16.9936V3.90699H17.949C18.1592 3.90699 18.2483 3.68805 18.2483 3.50338C18.2483 3.2846 18.14 3.0861 17.949 3.0861H16.9936V1.93028H18.7007C18.8917 1.93028 19 1.71134 19 1.4583C19 1.23937 18.9109 1 18.7007 1H16.4331C16.2165 1 16 1.10939 16 1.32832V5.67168C15.9999 5.89061 16.2165 6 16.4331 6Z" fill="#66686F"/>
<path d="M8 19.4999C8 18.6716 7.32844 18 6.50009 18C5.67156 18 5 18.6716 5 19.4999C5 20.3284 5.67156 21 6.50009 21C7.32844 21 8 20.3284 8 19.4999Z" fill="#66686F"/>
<path d="M20 19.4999C20 18.6716 19.3284 18 18.4999 18C17.6716 18 17 18.6716 17 19.4999C17 20.3284 17.6716 21 18.4999 21C19.3284 21 20 20.3284 20 19.4999Z" fill="#66686F"/>
<path d="M20.4534 13.4685L18.7777 12.8066L17.364 9.7593C17.15 9.29808 16.6739 9 16.1512 9H3.64919C3.29061 9 3 9.28062 3 9.6265V10.8325H3.64919C4.00777 10.8325 4.29838 11.1131 4.29838 11.459C4.29838 11.8051 4.00777 12.0855 3.64919 12.0855H3V13.3387H5.25053C5.60911 13.3387 5.89972 13.6191 5.89972 13.9652C5.89972 14.311 5.60911 14.5917 5.25053 14.5917H3V15.8447H3.64919C4.00777 15.8447 4.29838 16.1251 4.29838 16.4712C4.29838 16.8172 4.00777 17.0977 3.64919 17.0977H3V18.3735C3 18.7195 3.29061 19 3.64919 19H3.89331C4.15367 17.8447 5.21892 16.9768 6.49059 16.9768C7.76209 16.9768 8.82734 17.8447 9.08786 19H15.6941C15.9546 17.8447 17.0198 16.9768 18.2913 16.9768C19.563 16.9768 20.6282 17.8447 20.8886 19H21.3508C21.7092 19 22 18.7195 22 18.3735V15.6959C22 14.7139 21.3929 13.8395 20.4534 13.4685ZM14.2254 13.4868C13.8669 13.4868 13.5762 13.2064 13.5762 12.8603V10.1039H16.1512C16.1629 10.1039 17.6989 13.3984 17.6989 13.3984C17.7133 13.4294 17.7307 13.4587 17.75 13.4868H14.2254Z" fill="#66686F"/>
<path d="M1.73171 16C1.32755 16 1 16.2238 1 16.5C1 16.7762 1.32755 17 1.73171 17H3V16H1.73171Z" fill="#66686F"/>
<path d="M1.73171 13C1.32755 13 1 13.2238 1 13.5C1 13.776 1.32755 14 1.73171 14H3V13H1.73171Z" fill="#66686F"/>
<path d="M0.616504 11C0.275982 11 0 11.224 0 11.5C0 11.7762 0.275982 12 0.616504 12H3V11H0.616504Z" fill="#66686F"/>
</svg>
