<?xml version="1.0" encoding="utf-8"?>
<svg width="24" height="24" viewBox="0 0 24 24" fill="none" xmlns="http://www.w3.org/2000/svg">
<path d="M12 4.55733C9.64418 2.40556 6.02125 2.48362 3.75736 4.79151C1.41421 7.18019 1.41421 11.053 3.75736 13.4417L10.5858 20.4028C11.3668 21.1991 12.6332 21.1991 13.4142 20.4028L20.2426 13.4417C22.5858 11.053 22.5858 7.18019 20.2426 4.79151C17.9787 2.48362 14.3558 2.40556 12 4.55733ZM10.8284 6.23321L11.2929 6.7067C11.6834 7.10482 12.3166 7.10482 12.7071 6.7067L13.1716 6.23321C14.7337 4.64075 17.2663 4.64075 18.8284 6.23321C20.3905 7.82566 20.3905 10.4075 18.8284 12L12 18.9611L5.17157 12C3.60948 10.4075 3.60948 7.82566 5.17157 6.23321C6.73367 4.64075 9.26633 4.64075 10.8284 6.23321Z" fill="#414248"/>
</svg>
