<svg width="17" height="17" viewBox="0 0 17 17" xmlns="http://www.w3.org/2000/svg">
<path fill-rule="evenodd" clip-rule="evenodd" d="M5.27286 0H11.4749C14.3289 0 16.6433 2.37894 16.6433 5.3125V11.6875C16.6433 14.6211 14.3289 17 11.4749 17H5.27286C2.41889 17 0.104492 14.6211 0.104492 11.6875V5.3125C0.104492 2.37894 2.41889 0 5.27286 0ZM11.4748 15.4062C13.4698 15.4062 15.0927 13.7381 15.0927 11.6875V5.3125C15.0927 3.26187 13.4698 1.59375 11.4748 1.59375H5.2728C3.27782 1.59375 1.65495 3.26187 1.65495 5.3125V11.6875C1.65495 13.7381 3.27782 15.4062 5.2728 15.4062H11.4748Z"/>
<path fill-rule="evenodd" clip-rule="evenodd" d="M4.23926 8.5C4.23926 6.15294 6.09057 4.25 8.37395 4.25C10.6573 4.25 12.5086 6.15294 12.5086 8.5C12.5086 10.8471 10.6573 12.75 8.37395 12.75C6.09057 12.75 4.23926 10.8471 4.23926 8.5ZM5.78987 8.49998C5.78987 9.96411 6.94965 11.1562 8.37406 11.1562C9.79846 11.1562 10.9582 9.96411 10.9582 8.49998C10.9582 7.0348 9.79846 5.84373 8.37406 5.84373C6.94965 5.84373 5.78987 7.0348 5.78987 8.49998Z"/>
<ellipse cx="12.8185" cy="3.93118" rx="0.550948" ry="0.566312"/>
</svg>
