<svg width="24" height="22" viewBox="0 0 24 22" xmlns="http://www.w3.org/2000/svg">
<path d="M22.0718 2.15577C19.4616 -0.718199 15.2154 -0.718199 12.6059 2.15577L11.9998 2.82291L11.394 2.15577C8.78455 -0.718588 4.53795 -0.718588 1.92847 2.15577C-0.628032 4.97138 -0.644633 9.43443 1.88997 12.5375C4.2017 15.3667 11.0196 21.4792 11.3089 21.7379C11.5053 21.9137 11.7416 21.9993 11.9765 21.9993C11.9842 21.9993 11.992 21.9993 11.9994 21.9989C12.2424 22.0113 12.4872 21.9195 12.6899 21.7379C12.9792 21.4792 19.7979 15.3667 22.1103 12.5371C24.6445 9.43443 24.6279 4.97138 22.0718 2.15577ZM20.535 10.9761C18.7326 13.1813 13.7782 17.7296 11.9994 19.3435C10.2207 17.7299 5.26732 13.1821 3.46527 10.9764C1.69712 8.81202 1.68052 5.72955 3.42677 3.80631C4.31861 2.82446 5.48984 2.33315 6.66107 2.33315C7.8323 2.33315 9.00354 2.82407 9.89538 3.80631L11.2277 5.27364C11.3863 5.4483 11.5862 5.55255 11.796 5.58912C12.1365 5.66964 12.5059 5.565 12.7708 5.27402L14.1038 3.80631C15.8879 1.84223 18.7898 1.84262 20.5728 3.80631C22.319 5.72955 22.3024 8.81202 20.535 10.9761Z"/>
</svg>
