<svg width="12" height="12" viewBox="0 0 12 12" fill="none" xmlns="http://www.w3.org/2000/svg">
<path d="M0.41107 0.410765C0.736507 0.0853278 1.26414 0.0853278 1.58958 0.410765L6.00033 4.82151L10.4111 0.410765C10.7365 0.0853278 11.2641 0.0853278 11.5896 0.410765C11.915 0.736202 11.915 1.26384 11.5896 1.58928L7.17884 6.00002L11.5896 10.4108C11.915 10.7362 11.915 11.2638 11.5896 11.5893C11.2641 11.9147 10.7365 11.9147 10.4111 11.5893L6.00033 7.17853L1.58958 11.5893C1.26414 11.9147 0.736507 11.9147 0.41107 11.5893C0.0856329 11.2638 0.0856329 10.7362 0.41107 10.4108L4.82182 6.00002L0.41107 1.58928C0.0856329 1.26384 0.0856329 0.736202 0.41107 0.410765Z" fill="#66686F"/>
</svg>
