<svg width="20" height="20" viewBox="0 0 20 20" fill="none" xmlns="http://www.w3.org/2000/svg">
<path d="M9.99998 2.08331C10.3156 2.08331 10.6042 2.26165 10.7453 2.54397L12.8944 6.84214L17.6199 7.52949C17.9338 7.57514 18.1945 7.795 18.2925 8.09664C18.3905 8.39828 18.3088 8.7294 18.0817 8.95081L14.6425 12.3041L15.4161 17.0321C15.4673 17.3445 15.3369 17.659 15.0797 17.8436C14.8225 18.0283 14.4828 18.0512 14.2031 17.9028L9.99998 15.6725L5.79683 17.9028C5.51714 18.0512 5.17751 18.0283 4.92029 17.8436C4.66307 17.659 4.53271 17.3445 4.58384 17.0321L5.35751 12.3041L1.91823 8.95081C1.69115 8.7294 1.60943 8.39828 1.70743 8.09664C1.80544 7.795 2.06617 7.57514 2.38003 7.52949L7.10554 6.84214L9.25463 2.54397C9.39579 2.26165 9.68434 2.08331 9.99998 2.08331ZM9.99998 4.78004L8.40159 7.97682C8.27963 8.22074 8.04605 8.38955 7.77618 8.4288L4.29031 8.93584L6.83173 11.4137C7.02647 11.6036 7.1163 11.8766 7.07238 12.145L6.49999 15.6429L9.60939 13.993C9.85366 13.8634 10.1463 13.8634 10.3906 13.993L13.5 15.6429L12.9276 12.145C12.8837 11.8766 12.9735 11.6036 13.1682 11.4137L15.7097 8.93584L12.2238 8.4288C11.9539 8.38955 11.7203 8.22074 11.5984 7.97682L9.99998 4.78004Z" fill="currentColor"/>
</svg>
