<svg width="34" height="34" viewBox="0 0 34 34" fill="none" xmlns="http://www.w3.org/2000/svg">
<circle cx="17" cy="17" r="17" fill="#81324A"/>
<path d="M15 9C11.6863 9 9 11.6863 9 15C9 18.3137 11.6863 21 15 21C18.3137 21 21 18.3137 21 15C21 11.6863 18.3137 9 15 9ZM7 15C7 10.5817 10.5817 7 15 7C19.4183 7 23 10.5817 23 15C23 16.8487 22.3729 18.551 21.3199 19.9056L26.7071 25.2929C27.0976 25.6834 27.0976 26.3166 26.7071 26.7071C26.3166 27.0976 25.6834 27.0976 25.2929 26.7071L19.9056 21.3199C18.551 22.3729 16.8487 23 15 23C10.5817 23 7 19.4183 7 15Z" fill="white"/>
</svg>
