<svg width="24" height="24" viewBox="0 0 24 24" fill="none" xmlns="http://www.w3.org/2000/svg">
<path d="M17.449 21.9998C16.3703 22.0122 15.3479 21.5193 14.6859 20.6676C14.0238 19.8159 13.7984 18.7035 14.0765 17.6612L7.8361 14.0942C6.75777 15.0822 5.17712 15.2913 3.879 14.6177C2.58088 13.9441 1.84178 12.5313 2.02868 11.0807C2.21559 9.63019 3.28869 8.4509 4.71517 8.1284C6.14164 7.80591 7.61764 8.40891 8.4103 9.63799L14.0755 6.399C14.0022 6.12205 13.9634 5.8371 13.9599 5.55063C13.9456 3.8825 15.1041 2.43341 16.7344 2.08018C18.3647 1.72695 20.019 2.5666 20.6964 4.09106C21.3738 5.61552 20.8882 7.40612 19.5334 8.37939C18.1786 9.35266 16.3267 9.24131 15.0983 8.11271L8.96656 11.6169C8.96049 11.8754 8.92436 12.1323 8.8589 12.3825L15.0983 15.9485C16.247 14.8943 17.9561 14.7316 19.2831 15.55C20.61 16.3685 21.2317 17.969 20.8053 19.4686C20.3788 20.9683 19.008 22.0021 17.449 21.9998ZM17.449 17.0152C16.6231 17.0152 15.9536 17.6847 15.9536 18.5106C15.9536 19.3364 16.6231 20.0059 17.449 20.0059C18.2748 20.0059 18.9443 19.3364 18.9443 18.5106C18.9443 17.6847 18.2748 17.0152 17.449 17.0152ZM5.48647 10.0368C4.66063 10.0368 3.99116 10.7063 3.99116 11.5321C3.99116 12.358 4.66063 13.0275 5.48647 13.0275C6.31231 13.0275 6.98178 12.358 6.98178 11.5321C6.98178 10.7063 6.31231 10.0368 5.48647 10.0368ZM17.449 4.05525C16.6231 4.05525 15.9536 4.72475 15.9536 5.55063C15.9536 6.3765 16.6231 7.046 17.449 7.046C18.2748 7.046 18.9443 6.3765 18.9443 5.55063C18.9443 4.72475 18.2748 4.05525 17.449 4.05525Z" fill="#66686F"/>
</svg>
