<svg width="22" height="22" viewBox="0 0 22 22" fill="none" xmlns="http://www.w3.org/2000/svg">
<path d="M21.3555 3H18.6958C18.3871 3 18.1219 3.21441 18.063 3.51142L17.6163 5.76593H0.644487C0.453309 5.76593 0.271866 5.84919 0.149506 5.99318C0.0269775 6.13716 -0.0238802 6.32705 0.0105285 6.51151L1.78014 16.0049C1.8362 16.3052 2.10308 16.5233 2.41427 16.5233H16.6618C17.3194 16.5233 17.8543 17.0477 17.8543 17.6924C17.8543 18.3371 17.3194 18.8615 16.6618 18.8615H15.9775C15.6086 18.2209 14.9078 17.7873 14.1055 17.7873C13.3032 17.7873 12.6026 18.2209 12.2337 18.8615H7.03358C6.66466 18.2209 5.96406 17.7873 5.16175 17.7873C4.35928 17.7873 3.65868 18.2209 3.28976 18.8615H2.41427C2.05826 18.8615 1.76973 19.1446 1.76973 19.4934C1.76973 19.8424 2.05826 20.1253 2.41427 20.1253H3.0264C3.1444 21.1781 4.05682 22 5.16175 22C6.26652 22 7.17894 21.1781 7.2971 20.1253H11.9701C12.0883 21.1781 13.0007 22 14.1055 22C15.2104 22 16.1228 21.1781 16.2408 20.1253H16.6618C18.0303 20.1253 19.1434 19.034 19.1434 17.6924C19.1434 16.4675 18.2149 15.4514 17.0116 15.2842L18.78 6.52056C18.78 6.52023 18.78 6.5199 18.78 6.51941C18.7802 6.51908 18.7804 6.51875 18.7804 6.51842L19.227 4.26375H21.3555C21.7115 4.26375 22 3.98089 22 3.63187C22 3.28303 21.7115 3 21.3555 3ZM14.0966 8.47838C14.2164 8.36089 14.3828 8.29343 14.5525 8.29343C14.7222 8.29343 14.888 8.36089 15.0078 8.47838C15.1282 8.59587 15.197 8.75894 15.197 8.9253C15.197 9.09133 15.1282 9.2544 15.0078 9.37239C14.888 9.48988 14.7216 9.55718 14.5525 9.55718C14.3828 9.55718 14.2164 9.48988 14.0966 9.37239C13.9766 9.2544 13.9079 9.09133 13.9079 8.9253C13.9079 8.75894 13.9766 8.59587 14.0966 8.47838ZM6.17354 13.1378C6.17354 12.9714 6.24219 12.8089 6.3622 12.6909C6.48204 12.5734 6.64838 12.5059 6.81807 12.5059C6.98776 12.5059 7.15359 12.5734 7.27344 12.6909C7.39378 12.8089 7.4626 12.9714 7.4626 13.1378C7.4626 13.3043 7.39378 13.4669 7.27344 13.5844C7.15359 13.7024 6.98776 13.7697 6.81807 13.7697C6.64838 13.7697 6.48204 13.7024 6.3622 13.5844C6.24219 13.4669 6.17354 13.3043 6.17354 13.1378ZM8.75167 13.1378C8.75167 12.9714 8.82032 12.8084 8.94033 12.6909C9.06017 12.5734 9.22651 12.5059 9.3962 12.5059C9.56539 12.5059 9.73172 12.5734 9.85157 12.6909C9.97191 12.8089 10.0407 12.9714 10.0407 13.1378C10.0407 13.3043 9.97191 13.4669 9.85157 13.5844C9.73172 13.7024 9.56589 13.7697 9.3962 13.7697C9.22651 13.7697 9.06017 13.7024 8.94033 13.5844C8.82032 13.4669 8.75167 13.3043 8.75167 13.1378ZM11.3298 13.1378C11.3298 12.9714 11.3986 12.8084 11.5185 12.6909C11.6383 12.5734 11.8046 12.5059 11.9743 12.5059C12.1435 12.5059 12.3099 12.5734 12.4299 12.6909C12.55 12.8089 12.6189 12.9714 12.6189 13.1378C12.6189 13.3043 12.55 13.4669 12.4299 13.5844C12.3099 13.7024 12.1437 13.7697 11.9743 13.7697C11.8046 13.7697 11.6383 13.7024 11.5185 13.5844C11.3984 13.4669 11.3298 13.3043 11.3298 13.1378ZM13.2634 10.3997C13.4331 10.3997 13.5989 10.4671 13.7189 10.5846C13.8391 10.7021 13.9079 10.8652 13.9079 11.0316C13.9079 11.1981 13.8391 11.3607 13.7189 11.4786C13.5989 11.5961 13.4328 11.6634 13.2634 11.6634C13.0937 11.6634 12.9274 11.5961 12.8075 11.4786C12.6877 11.3607 12.6189 11.1981 12.6189 11.0316C12.6189 10.8652 12.6877 10.7021 12.8075 10.5846C12.9274 10.4671 13.0937 10.3997 13.2634 10.3997ZM11.5185 8.47838C11.6383 8.36089 11.8046 8.29343 11.9743 8.29343C12.144 8.29343 12.3099 8.36089 12.4297 8.47838C12.55 8.59587 12.6189 8.75894 12.6189 8.9253C12.6189 9.09133 12.55 9.2544 12.4297 9.37239C12.3099 9.48988 12.1435 9.55718 11.9743 9.55718C11.8046 9.55718 11.6383 9.48988 11.5185 9.37239C11.3984 9.2544 11.3298 9.09183 11.3298 8.9253C11.3298 8.75894 11.3984 8.59587 11.5185 8.47838ZM10.6853 10.3997C10.855 10.3997 11.0208 10.4671 11.1406 10.5846C11.261 10.7021 11.3298 10.8652 11.3298 11.0316C11.3298 11.1981 11.261 11.3607 11.1406 11.4786C11.0208 11.5961 10.855 11.6634 10.6853 11.6634C10.5156 11.6634 10.3492 11.5961 10.2294 11.4786C10.1094 11.3607 10.0407 11.1981 10.0407 11.0316C10.0407 10.8652 10.1094 10.7021 10.2294 10.5846C10.3492 10.4671 10.5156 10.3997 10.6853 10.3997ZM8.94033 8.47838C9.06017 8.36089 9.22651 8.29343 9.3962 8.29343C9.56589 8.29343 9.73172 8.36089 9.85157 8.47838C9.97191 8.59587 10.0407 8.75894 10.0407 8.9253C10.0407 9.09183 9.97191 9.2544 9.85157 9.37239C9.73172 9.48988 9.56589 9.55718 9.3962 9.55718C9.22651 9.55718 9.06017 9.48988 8.94033 9.37239C8.82032 9.2544 8.75167 9.09183 8.75167 8.9253C8.75167 8.75894 8.82032 8.59587 8.94033 8.47838ZM8.10713 10.3997C8.27683 10.3997 8.44266 10.4671 8.5625 10.5846C8.68285 10.7021 8.75167 10.8652 8.75167 11.0316C8.75167 11.1981 8.68285 11.3607 8.5625 11.4786C8.44266 11.5961 8.27683 11.6634 8.10713 11.6634C7.93744 11.6634 7.7711 11.5961 7.65126 11.4786C7.53125 11.3607 7.4626 11.1981 7.4626 11.0316C7.4626 10.8652 7.53125 10.7021 7.65126 10.5846C7.7711 10.4671 7.93744 10.3997 8.10713 10.3997ZM6.3622 8.47838C6.48204 8.36089 6.64838 8.29343 6.81807 8.29343C6.98776 8.29343 7.15359 8.36089 7.27344 8.47838C7.39378 8.59587 7.4626 8.75894 7.4626 8.9253C7.4626 9.09183 7.39378 9.2544 7.27344 9.37239C7.15359 9.48988 6.98776 9.55718 6.81807 9.55718C6.64838 9.55718 6.48204 9.48988 6.3622 9.37239C6.24219 9.2544 6.17354 9.09183 6.17354 8.9253C6.17354 8.75894 6.24219 8.59587 6.3622 8.47838ZM5.529 10.3997C5.6987 10.3997 5.86453 10.4671 5.98437 10.5846C6.10472 10.7021 6.17354 10.8652 6.17354 11.0316C6.17354 11.1981 6.10472 11.3607 5.98437 11.4786C5.86453 11.5961 5.6987 11.6634 5.529 11.6634C5.35931 11.6634 5.19297 11.5961 5.07313 11.4786C4.95312 11.3607 4.88447 11.1981 4.88447 11.0316C4.88447 10.8652 4.95312 10.7021 5.07313 10.5846C5.19297 10.4671 5.35931 10.3997 5.529 10.3997ZM3.78407 8.47838C3.90391 8.36089 4.07024 8.29343 4.23994 8.29343C4.40963 8.29343 4.57546 8.36089 4.69581 8.47838C4.81565 8.59587 4.88447 8.75894 4.88447 8.9253C4.88447 9.09133 4.81565 9.2544 4.69581 9.37239C4.57546 9.48988 4.4093 9.55718 4.23994 9.55718C4.07024 9.55718 3.90391 9.48988 3.78407 9.37239C3.66405 9.2544 3.59541 9.09133 3.59541 8.9253C3.59541 8.75894 3.66405 8.59587 3.78407 8.47838Z" fill="#66686F"/>
<path d="M15 4V2.65456C15 2.29302 14.7314 2 14.4 2H11V4H15Z" fill="#66686F"/>
<path d="M10 4V0.627144C10 0.280745 9.70623 0 9.34375 0H3.65625C3.29395 0 3 0.280745 3 0.627144V4H10Z" fill="#66686F"/>
</svg>
