<svg width="20" height="20" viewBox="0 0 20 20" fill="none" xmlns="http://www.w3.org/2000/svg">
<path d="M0.833496 2.08331H1.98774C2.46613 2.08331 2.70532 2.08331 2.89978 2.17005C3.0712 2.24652 3.21764 2.36969 3.32235 2.52548C3.44113 2.7022 3.48211 2.93785 3.56408 3.40917L3.84074 4.99998M3.84074 4.99998L4.49189 8.74408C4.67107 9.77435 4.76066 10.2895 5.02599 10.6606C5.25962 10.9873 5.58622 11.2362 5.96327 11.3747C6.39149 11.532 6.91193 11.4816 7.95281 11.3809L15.5118 10.6494C16.0728 10.5951 16.3533 10.568 16.5843 10.4862C17.2173 10.2621 17.6956 9.73526 17.8577 9.08357C17.9168 8.84583 17.9168 8.56402 17.9168 8.0004V8.0004C17.9168 7.40154 17.9168 7.10211 17.8522 6.85417C17.6749 6.17352 17.1531 5.63603 16.478 5.43867C16.2321 5.36678 15.9328 5.35792 15.3342 5.3402L3.84074 4.99998Z" stroke="currentColor" stroke-width="1.5" stroke-linecap="round" stroke-linejoin="round"/>
<ellipse cx="7.08317" cy="15.8334" rx="1.66667" ry="1.66667" stroke="currentColor" stroke-width="1.5"/>
<circle cx="15.0002" cy="15.8334" r="1.66667" stroke="currentColor" stroke-width="1.5"/>
</svg>
