<svg width="22" height="22" viewBox="0 0 22 22" fill="none" xmlns="http://www.w3.org/2000/svg">
<path d="M15 7V20H19.3174C19.6944 20 20 19.7153 20 19.3641V7H15Z" fill="#66686F"/>
<path d="M20.1821 6L21.9432 1.95838C22.0356 1.74634 22.0142 1.50232 21.8865 1.3094C21.7588 1.11629 21.5418 1 21.3092 1H17.6325C17.3568 1 17.1077 1.16256 16.9983 1.41354L15 6H20.1821Z" fill="#66686F"/>
<path d="M1.81772 6H7L5.00164 1.41354C4.89226 1.16256 4.64309 1 4.36766 1H0.690808C0.458194 1 0.241231 1.11629 0.1135 1.3094C-0.0142307 1.50232 -0.0356392 1.74634 0.0568309 1.95838L1.81772 6Z" fill="#66686F"/>
<path d="M8.4375 11H6.5625C6.25239 11 6 11.2243 6 11.5C6 11.7758 6.25239 12 6.5625 12H8.4375C8.74761 12 9 11.7758 9 11.5C9 11.2243 8.74761 11 8.4375 11Z" fill="#66686F"/>
<path d="M2 7V19.3641C2 19.7153 2.29072 20 2.64943 20H14V7H2ZM9.08239 12.9216H6.91761C5.84334 12.9216 4.9693 12.0658 4.9693 11.014C4.9693 9.96212 5.84334 9.10634 6.91761 9.10634H9.08239C10.1567 9.10634 11.0307 9.96212 11.0307 11.014C11.0307 12.0658 10.1567 12.9216 9.08239 12.9216Z" fill="#66686F"/>
</svg>
