<svg width="22" height="22" viewBox="0 0 22 22" fill="none" xmlns="http://www.w3.org/2000/svg">
<path d="M18.2175 5.86893C18.0238 5.67624 17.8231 5.49362 17.6161 5.3199L18.3495 4.27791L19.1143 4.81049C19.2274 4.88921 19.3569 4.92714 19.4853 4.92714C19.6894 4.92714 19.8904 4.8313 20.0164 4.65237C20.2215 4.36082 20.1504 3.95917 19.8574 3.75507L18.5623 2.85306C18.5623 2.85306 18.5621 2.85306 18.5621 2.85289H18.5619L17.2665 1.95055C16.9735 1.74644 16.5695 1.81728 16.3644 2.10883C16.1591 2.40021 16.2303 2.80203 16.5234 3.00613L17.2886 3.53888L16.572 4.5567C15.2474 3.7215 13.7353 3.22887 12.1474 3.12312V1.28856H13.875C14.2328 1.28856 14.5227 1.00003 14.5227 0.644196C14.5227 0.288528 14.2328 0 13.875 0H9.125C8.76723 0 8.47727 0.288528 8.47727 0.644196C8.47727 1.00003 8.76723 1.28856 9.125 1.28856H10.8519V3.12329C9.26416 3.22887 7.75229 3.72166 6.42799 4.5567L5.71144 3.53888L6.47657 3.00613C6.76957 2.80203 6.84092 2.40021 6.63564 2.10883C6.43052 1.81728 6.02654 1.74644 5.73354 1.95055L4.43809 2.85289C4.43809 2.85289 4.43809 2.85289 4.43792 2.85289C4.43775 2.85306 4.43775 2.85306 4.43775 2.85306L3.14263 3.75507C2.84964 3.95917 2.77845 4.36082 2.98357 4.65237C3.10957 4.8313 3.31047 4.92714 3.51474 4.92714C3.6431 4.92714 3.77265 4.88921 3.88566 4.81049L4.65045 4.27791L5.38387 5.3199C5.17707 5.49362 4.97617 5.67624 4.78253 5.86893C2.98812 7.65364 2 10.0265 2 12.5506C2 15.0746 2.98812 17.4475 4.78253 19.2324C6.57677 21.0171 8.96239 22 11.5 22C14.0376 22 16.4232 21.0171 18.2175 19.2324C20.0119 17.4477 21 15.0746 21 12.5506C21 10.0265 20.0119 7.65364 18.2175 5.86893ZM16.9912 18.0195C15.5655 19.4383 13.6773 20.2438 11.6744 20.2878C11.6154 20.2891 11.5563 20.2898 11.4973 20.2898C9.4239 20.2898 7.47987 19.4885 6.00629 18.022C4.49071 16.5139 3.68207 14.5108 3.7293 12.3817C3.77332 10.3889 4.58298 8.50999 6.00882 7.09119C7.4345 5.67238 9.32269 4.86688 11.3256 4.82291C13.4651 4.77608 15.4783 5.58057 16.9939 7.08867C18.5095 8.59677 19.3181 10.5999 19.2707 12.729C19.2267 14.7218 18.417 16.6007 16.9912 18.0195Z" fill="#66686F"/>
<path d="M11.3536 6.00163C9.6802 6.0387 8.10161 6.71595 6.90877 7.9088C5.71594 9.10181 5.0387 10.6803 5.00163 12.3537C4.96219 14.1428 5.63859 15.8262 6.90624 17.0939C8.17388 18.3615 9.85658 19.0381 11.6464 18.9983C13.3198 18.9614 14.8982 18.2842 16.0912 17.0912C17.2841 15.8983 17.9613 14.3197 17.9984 12.6465C18.0378 10.8573 17.3614 9.17392 16.0938 7.90626C14.8261 6.63859 13.1426 5.96219 11.3536 6.00163ZM15.1833 13.145H12.6251C12.4 13.533 11.98 13.7946 11.5 13.7946C10.7832 13.7946 10.2 13.2117 10.2 12.4952C10.2 11.7786 10.7832 11.1957 11.5 11.1957C11.98 11.1957 12.4 11.4575 12.6251 11.8455H15.1833C15.5423 11.8455 15.8333 12.1363 15.8333 12.4952C15.8333 12.854 15.5423 13.145 15.1833 13.145Z" fill="#66686F"/>
</svg>
