<svg width="20" height="20" viewBox="0 0 20 20" fill="none" xmlns="http://www.w3.org/2000/svg">
<path d="M17.5538 3.56783C15.5962 1.47767 12.4115 1.47767 10.4544 3.56783L9.99983 4.05302L9.54552 3.56783C7.58841 1.47739 4.40347 1.47739 2.44635 3.56783C0.528976 5.61555 0.516525 8.8614 2.41748 11.1182C4.15128 13.1758 9.26472 17.6212 9.48168 17.8094C9.62897 17.9372 9.80619 17.9995 9.98235 17.9995C9.98818 17.9995 9.99401 17.9995 9.99957 17.9992C10.1818 18.0082 10.3654 17.9415 10.5175 17.8094C10.7344 17.6212 15.8484 13.1758 17.5827 11.1179C19.4834 8.8614 19.471 5.61555 17.5538 3.56783ZM16.4012 9.98258C15.0494 11.5864 11.3336 14.8942 9.99957 16.068C8.66551 14.8945 4.95049 11.587 3.59895 9.98287C2.27284 8.40874 2.26039 6.16694 3.57008 4.76823C4.23896 4.05416 5.11738 3.69684 5.99581 3.69684C6.87423 3.69684 7.75265 4.05387 8.42153 4.76823L9.42075 5.83537C9.5397 5.9624 9.68963 6.03822 9.84698 6.06481C10.1024 6.12338 10.3794 6.04727 10.5781 5.83565L11.5779 4.76823C12.9159 3.3398 15.0924 3.34008 16.4296 4.76823C17.7393 6.16694 17.7268 8.40874 16.4012 9.98258Z" fill="#8E8F90"/>
</svg>
