<svg width="17" height="15" viewBox="0 0 17 15" xmlns="http://www.w3.org/2000/svg">
<path d="M16.5515 2.18066C15.9364 2.45797 15.2811 2.64178 14.5978 2.73103C15.3007 2.29966 15.8372 1.62178 16.0894 0.804721C15.4341 1.20635 14.7105 1.49003 13.9394 1.64835C13.3171 0.967284 12.4302 0.545471 11.4627 0.545471C9.58554 0.545471 8.07431 2.1116 8.07431 4.03153C8.07431 4.30778 8.09705 4.57341 8.15287 4.82628C5.33404 4.68497 2.83979 3.29628 1.16421 1.18085C0.871678 1.70253 0.700088 2.29966 0.700088 2.94247C0.700088 4.14947 1.30479 5.21941 2.20615 5.83885C1.6614 5.82822 1.12699 5.66566 0.674246 5.4096C0.674246 5.42022 0.674246 5.43403 0.674246 5.44785C0.674246 7.14147 1.84953 8.54822 3.39074 8.87228C3.11475 8.94985 2.81395 8.98703 2.50178 8.98703C2.28471 8.98703 2.06557 8.97428 1.85987 8.92753C2.29918 10.3077 3.54579 11.3224 5.02808 11.3553C3.8745 12.2829 2.40978 12.8418 0.824129 12.8418C0.546071 12.8418 0.279383 12.829 0.0126953 12.794C1.51462 13.7895 3.29461 14.358 5.21414 14.358C11.4534 14.358 14.8645 9.04547 14.8645 4.4406C14.8645 4.28653 14.8593 4.13778 14.8521 3.9901C15.525 3.49922 16.0904 2.88616 16.5515 2.18066Z"/>
</svg>
