<svg width="21" height="18" viewBox="0 0 21 18" fill="none" xmlns="http://www.w3.org/2000/svg">
<path d="M21 2.3999C20.2191 2.74711 19.3869 2.97725 18.5194 3.089C19.4119 2.54889 20.0931 1.70015 20.4133 0.677136C19.5812 1.18 18.6624 1.53519 17.6833 1.73341C16.8932 0.880675 15.7671 0.352539 14.5386 0.352539C12.1551 0.352539 10.2362 2.31343 10.2362 4.71731C10.2362 5.06319 10.2651 5.39577 10.3359 5.71239C6.75675 5.53545 3.58969 3.79673 1.46212 1.14807C1.09069 1.80125 0.872813 2.54889 0.872813 3.35373C0.872813 4.86497 1.64062 6.2046 2.78512 6.98018C2.09344 6.96687 1.41487 6.76334 0.84 6.44273C0.84 6.45603 0.84 6.47333 0.84 6.49062C0.84 8.61115 2.33231 10.3725 4.28925 10.7782C3.93881 10.8753 3.55687 10.9219 3.1605 10.9219C2.88488 10.9219 2.60662 10.9059 2.34544 10.8474C2.90325 12.5755 4.48612 13.8459 6.36825 13.8872C4.9035 15.0485 3.04369 15.7483 1.03031 15.7483C0.67725 15.7483 0.338625 15.7323 0 15.6884C1.90706 16.9349 4.16719 17.6467 6.6045 17.6467C14.5268 17.6467 18.858 10.9951 18.858 5.22948C18.858 5.03658 18.8514 4.85034 18.8422 4.66543C19.6967 4.05082 20.4146 3.28323 21 2.3999Z" fill="#66686F"/>
</svg>
